<svg xmlns="http://www.w3.org/2000/svg" viewBox="0 0 45.55 45.55"><defs><style>.cls-1{opacity:1; color: #16a455;}.cls-2{fill:#fff;}</style></defs><title>icon-360-deg</title><g id="Layer_2" data-name="Layer 2"><g id="Layer_1-2" data-name="Layer 1"><g class="cls-1"><path class="cls-2" d="M0,22V0H22a.34.34,0,0,1-.15.07,9.61,9.61,0,0,0-5.65,3A21.84,21.84,0,0,0,11,12.29a34.1,34.1,0,0,0-1.37,7.37,37.71,37.71,0,0,0,.35,9.13c.22,1.31.51,2.61.78,4-.61-.26-1.22-.51-1.82-.79a15.12,15.12,0,0,1-6-4.62,7.19,7.19,0,0,1-1.3-6.55,9.46,9.46,0,0,1,3.1-4.47,19.08,19.08,0,0,1,4.58-2.87c.47-.22.63-.54.47-.91s-.53-.45-1-.24a20.18,20.18,0,0,0-4.31,2.56,11.27,11.27,0,0,0-4,5.41C.24,20.82.14,21.41,0,22Z"/><path d="M0,22c.14-.57.24-1.16.42-1.71a11.27,11.27,0,0,1,4-5.41A20.18,20.18,0,0,1,8.76,12.3c.46-.21.83-.11,1,.24s0,.69-.47.91A19.08,19.08,0,0,0,4.7,16.32a9.46,9.46,0,0,0-3.1,4.47,7.19,7.19,0,0,0,1.3,6.55,15.12,15.12,0,0,0,6,4.62c.6.28,1.21.53,1.82.79-.27-1.35-.56-2.65-.78-4a37.71,37.71,0,0,1-.35-9.13A34.1,34.1,0,0,1,11,12.29,21.84,21.84,0,0,1,16.18,3,9.61,9.61,0,0,1,21.83.07.34.34,0,0,0,22,0h1.6c.53.13,1.07.22,1.59.38a11.36,11.36,0,0,1,5.23,3.7,21.2,21.2,0,0,1,3.72,6.72,1,1,0,0,0,.68.68,20.62,20.62,0,0,1,7.47,4.43,9.88,9.88,0,0,1,3.2,5.76,8.64,8.64,0,0,1-2.24,7A17.49,17.49,0,0,1,37,33.17a34.26,34.26,0,0,1-16.2,2.89,37.11,37.11,0,0,1-7.76-1.22l-.26-.05c.23.53.42,1,.63,1.49a16.65,16.65,0,0,0,4.44,6.09,7.33,7.33,0,0,0,9.66.13,15.85,15.85,0,0,0,4.34-5.67c.11-.23.21-.46.33-.68a.63.63,0,1,1,1.14.54c-.46.91-.9,1.84-1.43,2.71a13.82,13.82,0,0,1-4.62,4.84,8.43,8.43,0,0,1-9.82-.56,16.88,16.88,0,0,1-4.82-6.14c-.46-.94-.83-1.93-1.22-2.91a.79.79,0,0,0-.5-.49,21.92,21.92,0,0,1-6.78-3.73,10.94,10.94,0,0,1-3.89-5.7c-.1-.4-.17-.81-.26-1.22Zm34.83-9.15c.06.28.08.42.12.56a35.45,35.45,0,0,1,1.16,7.45,38.2,38.2,0,0,1-.92,10.55c-.15.63-.42.9-.84.81s-.57-.46-.43-1.09a35.38,35.38,0,0,0,.92-7.17,35.3,35.3,0,0,0-1.41-11.29.63.63,0,0,0-.5-.47A32,32,0,0,0,24,10.81c-2.06,0-4.12.14-6.17.32-1.23.11-2.45.42-3.67.63-.45.08-.76-.1-.84-.45a.66.66,0,0,1,.58-.8,38.07,38.07,0,0,1,6.72-1,37.39,37.39,0,0,1,11.63,1.18,3.58,3.58,0,0,0,.37.06.61.61,0,0,0,0-.15c-.1-.27-.2-.53-.32-.79a17.26,17.26,0,0,0-4.41-6.43,7.41,7.41,0,0,0-10.25,0,16.59,16.59,0,0,0-4.3,6.08,30.94,30.94,0,0,0-2.45,9.83,35.87,35.87,0,0,0,1.24,13.55.77.77,0,0,0,.6.6,36.66,36.66,0,0,0,12.68,1.26A31.4,31.4,0,0,0,36.14,32.2a17.06,17.06,0,0,0,6.2-4.44,7.44,7.44,0,0,0,.33-9.54,14.32,14.32,0,0,0-5.06-4.11C36.73,13.66,35.82,13.29,34.83,12.83Z"/><path d="M24.67,24a18.23,18.23,0,0,1,.61-2.07,2.41,2.41,0,0,1,4.4.14,5.59,5.59,0,0,1,0,4.25,2.28,2.28,0,0,1-2.35,1.49,2.22,2.22,0,0,1-2.17-1.61A16.13,16.13,0,0,1,24.67,24Zm3.85.12c-.09-.56-.15-1.1-.28-1.63a.82.82,0,0,0-.79-.72c-.43,0-.65.34-.76.71a5.91,5.91,0,0,0,0,3.41.79.79,0,0,0,.78.67.78.78,0,0,0,.75-.7C28.35,25.25,28.42,24.66,28.52,24.08Z"/><path d="M23.38,20.57v1.19c-1.24.09-2.43.23-2.94,1.76A2.38,2.38,0,0,1,22.37,23a2.31,2.31,0,0,1,1.27,3.7,2.59,2.59,0,0,1-2.76,1,2.4,2.4,0,0,1-2-1.89,4.07,4.07,0,0,1,4.37-5.26Zm-.89,4.72c0-.87-.66-1.4-1.38-1.14a1.07,1.07,0,0,0-.73,1.05c.06.74.39,1.23.9,1.34C22,26.69,22.51,26.16,22.49,25.29Z"/><path d="M16.31,23.9c1.23.56,1.58,1.07,1.41,2.06a1.87,1.87,0,0,1-1,1.32,4.35,4.35,0,0,1-4,0l.34-1.21a6.44,6.44,0,0,0,1,.3,4.53,4.53,0,0,0,1.22,0,.78.78,0,0,0,.67-.83.8.8,0,0,0-.61-.83c-.46-.12-1-.17-1.46-.26v-1c.41-.05.81-.07,1.2-.15s.67-.28.65-.72a.69.69,0,0,0-.76-.66,7.78,7.78,0,0,0-1.26.17,2.85,2.85,0,0,0-.49.19c-.09-.34-.2-.64-.26-1a.42.42,0,0,1,.19-.32,4.13,4.13,0,0,1,3-.23,1.62,1.62,0,0,1,.23,3.06Z"/><path d="M29,18.62a2.39,2.39,0,0,1,2.39-2.4,2.39,2.39,0,0,1,0,4.78A2.38,2.38,0,0,1,29,18.62Zm2.36,1a1.1,1.1,0,0,0,1.12-1.13,1.1,1.1,0,1,0-1.12,1.13Z"/><path class="cls-2" d="M31.35,19.66a1.16,1.16,0,0,1-1.08-1.09,1.1,1.1,0,0,1,2.2,0A1.1,1.1,0,0,1,31.35,19.66Z"/></g></g></g></svg>
